<svg width="813" height="133" viewBox="0 0 813 133" fill="none" xmlns="http://www.w3.org/2000/svg">
<path d="M744.788 131.872H741.589L748.778 111.896H752.26L759.448 131.872H756.249L750.602 115.524H750.446L744.788 131.872ZM745.325 124.049H755.703V126.585H745.325V124.049Z" fill="white"/>
<path d="M717.98 131.872V111.896H725.101C726.649 111.896 727.933 112.162 728.954 112.695C729.981 113.229 730.748 113.967 731.256 114.909C731.763 115.846 732.017 116.929 732.017 118.158C732.017 119.38 731.76 120.456 731.246 121.386C730.739 122.31 729.971 123.028 728.944 123.542C727.923 124.056 726.639 124.312 725.091 124.312H719.697V121.718H724.818C725.793 121.718 726.587 121.578 727.198 121.298C727.816 121.019 728.268 120.612 728.554 120.079C728.84 119.546 728.983 118.905 728.983 118.158C728.983 117.403 728.837 116.75 728.544 116.197C728.258 115.644 727.806 115.222 727.188 114.929C726.577 114.63 725.774 114.48 724.779 114.48H720.994V131.872H717.98ZM727.842 122.859L732.777 131.872H729.344L724.506 122.859H727.842Z" fill="white"/>
<path d="M703.16 111.896H706.183V125.034C706.183 126.432 705.855 127.671 705.198 128.75C704.541 129.823 703.618 130.669 702.428 131.287C701.238 131.898 699.843 132.203 698.243 132.203C696.65 132.203 695.259 131.898 694.069 131.287C692.879 130.669 691.955 129.823 691.299 128.75C690.642 127.671 690.313 126.432 690.313 125.034V111.896H693.327V124.79C693.327 125.694 693.526 126.497 693.922 127.2C694.326 127.902 694.895 128.455 695.629 128.858C696.364 129.254 697.236 129.453 698.243 129.453C699.258 129.453 700.133 129.254 700.867 128.858C701.609 128.455 702.174 127.902 702.565 127.2C702.961 126.497 703.16 125.694 703.16 124.79V111.896Z" fill="white"/>
<path d="M664.021 114.49V111.896H679.481V114.49H673.248V131.872H670.244V114.49H664.021Z" fill="white"/>
<path d="M642.405 131.872H639.206L646.395 111.896H649.877L657.066 131.872H653.866L648.219 115.524H648.063L642.405 131.872ZM642.942 124.049H653.32V126.585H642.942V124.049Z" fill="white"/>
<path d="M619.701 131.872V111.896H632.089V114.49H622.715V120.577H631.201V123.161H622.715V131.872H619.701Z" fill="white"/>
<path d="M604.879 111.896H607.903V125.034C607.903 126.432 607.575 127.671 606.918 128.75C606.261 129.823 605.338 130.669 604.148 131.287C602.958 131.898 601.563 132.203 599.963 132.203C598.37 132.203 596.978 131.898 595.789 131.287C594.599 130.669 593.675 129.823 593.018 128.75C592.362 127.671 592.033 126.432 592.033 125.034V111.896H595.047V124.79C595.047 125.694 595.246 126.497 595.642 127.2C596.045 127.902 596.614 128.455 597.349 128.858C598.084 129.254 598.955 129.453 599.963 129.453C600.978 129.453 601.852 129.254 602.587 128.858C603.328 128.455 603.894 127.902 604.284 127.2C604.681 126.497 604.879 125.694 604.879 124.79V111.896Z" fill="white"/>
<path d="M580.221 111.896V131.872H577.451L567.297 117.221H567.112V131.872H564.098V111.896H566.887L577.051 126.566H577.236V111.896H580.221Z" fill="white"/>
<path d="M539.137 131.872H535.938L543.126 111.896H546.608L553.797 131.872H550.598L544.95 115.524H544.794L539.137 131.872ZM539.673 124.049H550.052V126.585H539.673V124.049Z" fill="white"/>
<path d="M505.382 111.896H509.04L515.399 127.424H515.633L521.993 111.896H525.651V131.872H522.783V117.416H522.598L516.706 131.842H514.326L508.435 117.407H508.25V131.872H505.382V111.896Z" fill="white"/>
<path d="M799.951 90.6706V70.6943H812.475V73.2889H802.965V79.3754H811.822V81.9602H802.965V88.076H812.592V90.6706H799.951Z" fill="white"/>
<path d="M779.18 90.6706H772.713V70.6943H779.385C781.342 70.6943 783.023 71.0942 784.427 71.8941C785.832 72.6874 786.908 73.8286 787.656 75.3177C788.41 76.8004 788.788 78.5788 788.788 80.6532C788.788 82.734 788.407 84.5223 787.646 86.0179C786.892 87.5135 785.8 88.6645 784.369 89.4708C782.938 90.2707 781.209 90.6706 779.18 90.6706ZM775.727 88.037H779.014C780.536 88.037 781.8 87.7509 782.808 87.1786C783.816 86.5999 784.571 85.7643 785.071 84.6718C785.572 83.5729 785.822 82.2333 785.822 80.6532C785.822 79.086 785.572 77.7562 785.071 76.6638C784.577 75.5713 783.839 74.7423 782.857 74.1765C781.875 73.6108 780.656 73.3279 779.199 73.3279H775.727V88.037Z" fill="white"/>
<path d="M743.831 75.9417C743.727 75.0183 743.298 74.303 742.543 73.7958C741.789 73.2821 740.84 73.0252 739.695 73.0252C738.876 73.0252 738.167 73.1553 737.569 73.4154C736.97 73.669 736.506 74.0201 736.174 74.4688C735.849 74.911 735.686 75.415 735.686 75.9807C735.686 76.4554 735.797 76.8651 736.018 77.2097C736.245 77.5543 736.541 77.8437 736.905 78.0778C737.276 78.3054 737.673 78.4972 738.095 78.6533C738.518 78.8029 738.925 78.9264 739.315 79.0239L741.266 79.5312C741.903 79.6872 742.556 79.8986 743.226 80.1652C743.896 80.4318 744.517 80.7829 745.089 81.2186C745.661 81.6543 746.123 82.194 746.474 82.8378C746.832 83.4815 747.011 84.2521 747.011 85.1495C747.011 86.2809 746.718 87.2856 746.133 88.1635C745.554 89.0413 744.712 89.7339 743.606 90.2411C742.508 90.7483 741.178 91.0019 739.617 91.0019C738.121 91.0019 736.827 90.7645 735.735 90.2898C734.643 89.8151 733.787 89.1421 733.17 88.2708C732.552 87.3929 732.211 86.3525 732.146 85.1495H735.169C735.228 85.8713 735.462 86.4728 735.872 86.954C736.288 87.4287 736.818 87.7831 737.461 88.0172C738.112 88.2447 738.824 88.3585 739.598 88.3585C740.449 88.3585 741.207 88.2252 741.87 87.9586C742.54 87.6855 743.067 87.3084 743.45 86.8272C743.834 86.3395 744.026 85.7705 744.026 85.1202C744.026 84.5285 743.857 84.044 743.519 83.6669C743.187 83.2897 742.735 82.9776 742.163 82.7305C741.597 82.4834 740.957 82.2655 740.241 82.077L737.881 81.4332C736.281 80.9975 735.013 80.357 734.077 79.5116C733.147 78.6663 732.682 77.5478 732.682 76.1563C732.682 75.0053 732.994 74.0006 733.618 73.1423C734.243 72.2839 735.088 71.6174 736.154 71.1427C737.221 70.6615 738.424 70.4209 739.763 70.4209C741.116 70.4209 742.309 70.6582 743.343 71.1329C744.384 71.6076 745.203 72.2612 745.801 73.0935C746.399 73.9193 746.712 74.8687 746.738 75.9417H743.831Z" fill="white"/>
<path d="M721.761 80.6821C721.761 82.815 721.371 84.6488 720.59 86.1834C719.81 87.7115 718.74 88.8885 717.381 89.7144C716.029 90.5337 714.491 90.9434 712.768 90.9434C711.038 90.9434 709.494 90.5337 708.134 89.7144C706.782 88.8885 705.715 87.7083 704.935 86.1736C704.155 84.639 703.765 82.8085 703.765 80.6821C703.765 78.5493 704.155 76.7187 704.935 75.1906C705.715 73.656 706.782 72.479 708.134 71.6597C709.494 70.8338 711.038 70.4209 712.768 70.4209C714.491 70.4209 716.029 70.8338 717.381 71.6597C718.74 72.479 719.81 73.656 720.59 75.1906C721.371 76.7187 721.761 78.5493 721.761 80.6821ZM718.776 80.6821C718.776 79.0565 718.513 77.6876 717.986 76.5757C717.466 75.4572 716.75 74.6119 715.84 74.0396C714.936 73.4609 713.912 73.1715 712.768 73.1715C711.617 73.1715 710.589 73.4609 709.685 74.0396C708.781 74.6119 708.066 75.4572 707.539 76.5757C707.019 77.6876 706.759 79.0565 706.759 80.6821C706.759 82.3078 707.019 83.6799 707.539 84.7983C708.066 85.9103 708.781 86.7556 709.685 87.3344C710.589 87.9066 711.617 88.1927 712.768 88.1927C713.912 88.1927 714.936 87.9066 715.84 87.3344C716.75 86.7556 717.466 85.9103 717.986 84.7983C718.513 83.6799 718.776 82.3078 718.776 80.6821Z" fill="white"/>
<path d="M683.637 90.6706H677.17V70.6943H683.842C685.799 70.6943 687.48 71.0942 688.884 71.8941C690.289 72.6874 691.365 73.8286 692.113 75.3177C692.867 76.8004 693.245 78.5788 693.245 80.6532C693.245 82.734 692.864 84.5223 692.103 86.0179C691.349 87.5135 690.257 88.6645 688.826 89.4708C687.395 90.2707 685.666 90.6706 683.637 90.6706ZM680.184 88.037H683.471C684.993 88.037 686.257 87.7509 687.265 87.1786C688.273 86.5999 689.028 85.7643 689.528 84.6718C690.029 83.5729 690.279 82.2333 690.279 80.6532C690.279 79.086 690.029 77.7562 689.528 76.6638C689.034 75.5713 688.296 74.7423 687.314 74.1765C686.332 73.6108 685.113 73.3279 683.656 73.3279H680.184V88.037Z" fill="white"/>
<path d="M652.208 90.6706H649.009L656.198 70.6943H659.68L666.868 90.6706H663.669L658.022 74.3228H657.865L652.208 90.6706ZM652.745 82.8478H663.123V85.3839H652.745V82.8478Z" fill="white"/>
<path d="M625.4 90.6706V70.6943H632.521C634.068 70.6943 635.353 70.9609 636.374 71.4942C637.401 72.0274 638.168 72.7654 638.676 73.7083C639.183 74.6447 639.436 75.7274 639.436 76.9564C639.436 78.1789 639.18 79.2551 638.666 80.185C638.159 81.1084 637.391 81.8269 636.364 82.3406C635.343 82.8543 634.059 83.1112 632.511 83.1112H627.117V80.5166H632.238C633.213 80.5166 634.007 80.3768 634.618 80.0972C635.236 79.8176 635.688 79.4112 635.974 78.878C636.26 78.3447 636.403 77.7042 636.403 76.9564C636.403 76.2021 636.257 75.5486 635.964 74.9959C635.678 74.4431 635.226 74.0205 634.608 73.7278C633.997 73.4287 633.194 73.2792 632.199 73.2792H628.414V90.6706H625.4ZM635.262 81.6579L640.197 90.6706H636.764L631.926 81.6579H635.262Z" fill="white"/>
<path d="M610.93 77.0049C610.742 76.4131 610.488 75.8832 610.17 75.415C609.857 74.9403 609.484 74.5371 609.048 74.2055C608.612 73.8673 608.115 73.6105 607.556 73.4349C607.003 73.2593 606.395 73.1715 605.732 73.1715C604.607 73.1715 603.592 73.4609 602.688 74.0396C601.784 74.6184 601.069 75.467 600.542 76.5854C600.022 77.6974 599.762 79.0597 599.762 80.6724C599.762 82.2915 600.025 83.6604 600.552 84.7788C601.079 85.8973 601.801 86.7459 602.718 87.3246C603.634 87.9034 604.678 88.1927 605.849 88.1927C606.935 88.1927 607.881 87.9716 608.687 87.5295C609.5 87.0873 610.127 86.463 610.57 85.6567C611.018 84.8438 611.243 83.888 611.243 82.789L612.023 82.9353H606.307V80.448H614.159V82.7207C614.159 84.3984 613.801 85.855 613.086 87.0905C612.377 88.3195 611.395 89.2689 610.14 89.9387C608.892 90.6085 607.461 90.9434 605.849 90.9434C604.041 90.9434 602.454 90.5272 601.089 89.6948C599.73 88.8625 598.67 87.6823 597.909 86.1541C597.148 84.6195 596.768 82.7988 596.768 80.6919C596.768 79.0987 596.989 77.6681 597.431 76.4001C597.873 75.1321 598.494 74.0559 599.294 73.1715C600.1 72.2807 601.046 71.6011 602.132 71.1329C603.225 70.6582 604.418 70.4209 605.712 70.4209C606.791 70.4209 607.796 70.5802 608.726 70.8988C609.662 71.2175 610.495 71.6694 611.223 72.2547C611.958 72.8399 612.566 73.5357 613.047 74.342C613.528 75.1418 613.853 76.0295 614.022 77.0049H610.93Z" fill="white"/>
<path d="M573.445 90.6706V70.6943H585.969V73.2889H576.459V79.3754H585.316V81.9602H576.459V88.076H586.087V90.6706H573.445Z" fill="white"/>
<path d="M547.152 73.2889V70.6943H562.612V73.2889H556.38V90.6706H553.375V73.2889H547.152Z" fill="white"/>
<path d="M536.325 70.6943V90.6706H533.554L523.4 76.02H523.215V90.6706H520.201V70.6943H522.991L533.155 85.3644H533.34V70.6943H536.325Z" fill="white"/>
<path d="M508.396 70.6943V90.6706H505.382V70.6943H508.396Z" fill="white"/>
<path d="M689.111 34.741C689.007 33.8176 688.578 33.1023 687.824 32.5951C687.069 32.0814 686.12 31.8245 684.975 31.8245C684.156 31.8245 683.447 31.9546 682.849 32.2147C682.251 32.4683 681.786 32.8194 681.454 33.2681C681.129 33.7103 680.966 34.2143 680.966 34.78C680.966 35.2547 681.077 35.6644 681.298 36.009C681.526 36.3537 681.822 36.643 682.186 36.8771C682.556 37.1047 682.953 37.2965 683.376 37.4526C683.798 37.6022 684.205 37.7257 684.595 37.8233L686.546 38.3305C687.183 38.4865 687.837 38.6979 688.506 38.9645C689.176 39.2311 689.797 39.5822 690.369 40.0179C690.942 40.4536 691.403 40.9933 691.754 41.6371C692.112 42.2808 692.291 43.0514 692.291 43.9488C692.291 45.0803 691.998 46.0849 691.413 46.9628C690.834 47.8406 689.992 48.5332 688.887 49.0404C687.788 49.5476 686.458 49.8012 684.897 49.8012C683.402 49.8012 682.108 49.5639 681.015 49.0892C679.923 48.6145 679.068 47.9414 678.45 47.0701C677.832 46.1922 677.491 45.1518 677.426 43.9488H680.45C680.508 44.6706 680.742 45.2721 681.152 45.7533C681.568 46.228 682.098 46.5824 682.742 46.8165C683.392 47.0441 684.104 47.1579 684.878 47.1579C685.73 47.1579 686.487 47.0246 687.151 46.7579C687.82 46.4848 688.347 46.1077 688.731 45.6265C689.114 45.1388 689.306 44.5698 689.306 43.9195C689.306 43.3278 689.137 42.8433 688.799 42.4662C688.467 42.089 688.015 41.7769 687.443 41.5298C686.877 41.2827 686.237 41.0648 685.522 40.8763L683.161 40.2325C681.561 39.7968 680.293 39.1563 679.357 38.311C678.427 37.4656 677.962 36.3472 677.962 34.9556C677.962 33.8046 678.274 32.7999 678.899 31.9416C679.523 31.0832 680.368 30.4167 681.435 29.942C682.501 29.4608 683.704 29.2202 685.044 29.2202C686.396 29.2202 687.589 29.4576 688.623 29.9323C689.664 30.407 690.483 31.0605 691.081 31.8928C691.68 32.7187 691.992 33.668 692.018 34.741H689.111Z" fill="white"/>
<path d="M653.415 49.4699H650.216L657.405 29.4937H660.887L668.075 49.4699H664.876L659.229 33.1221H659.072L653.415 49.4699ZM653.952 41.6472H664.33V44.1832H653.952V41.6472Z" fill="white"/>
<path d="M619.661 29.4937H623.319L629.679 45.0221H629.913L636.272 29.4937H639.93V49.4699H637.062V35.0144H636.877L630.986 49.4406H628.606L622.714 35.0047H622.529V49.4699H619.661V29.4937Z" fill="white"/>
<path d="M595.694 49.4699V29.4937H608.218V32.0882H598.708V38.1747H607.565V40.7595H598.708V46.8753H608.336V49.4699H595.694Z" fill="white"/>
<path d="M569.402 32.0882V29.4937H584.862V32.0882H578.63V49.4699H575.625V32.0882H569.402Z" fill="white"/>
<path d="M556.189 34.741C556.085 33.8176 555.656 33.1023 554.902 32.5951C554.147 32.0814 553.198 31.8245 552.054 31.8245C551.234 31.8245 550.525 31.9546 549.927 32.2147C549.329 32.4683 548.864 32.8194 548.532 33.2681C548.207 33.7103 548.045 34.2143 548.045 34.78C548.045 35.2547 548.155 35.6644 548.376 36.009C548.604 36.3537 548.9 36.643 549.264 36.8771C549.635 37.1047 550.031 37.2965 550.454 37.4526C550.877 37.6022 551.283 37.7257 551.673 37.8233L553.624 38.3305C554.261 38.4865 554.915 38.6979 555.584 38.9645C556.254 39.2311 556.875 39.5822 557.447 40.0179C558.02 40.4536 558.481 40.9933 558.833 41.6371C559.19 42.2808 559.369 43.0514 559.369 43.9488C559.369 45.0803 559.076 46.0849 558.491 46.9628C557.912 47.8406 557.07 48.5332 555.965 49.0404C554.866 49.5476 553.536 49.8012 551.975 49.8012C550.48 49.8012 549.186 49.5639 548.093 49.0892C547.001 48.6145 546.146 47.9414 545.528 47.0701C544.91 46.1922 544.569 45.1518 544.504 43.9488H547.528C547.586 44.6706 547.82 45.2721 548.23 45.7533C548.646 46.228 549.176 46.5824 549.82 46.8165C550.47 47.0441 551.182 47.1579 551.956 47.1579C552.808 47.1579 553.565 47.0246 554.229 46.7579C554.898 46.4848 555.425 46.1077 555.809 45.6265C556.192 45.1388 556.384 44.5698 556.384 43.9195C556.384 43.3278 556.215 42.8433 555.877 42.4662C555.545 42.089 555.094 41.7769 554.521 41.5298C553.956 41.2827 553.315 41.0648 552.6 40.8763L550.239 40.2325C548.64 39.7968 547.372 39.1563 546.435 38.311C545.505 37.4656 545.04 36.3472 545.04 34.9556C545.04 33.8046 545.353 32.7999 545.977 31.9416C546.601 31.0832 547.446 30.4167 548.513 29.942C549.579 29.4608 550.782 29.2202 552.122 29.2202C553.474 29.2202 554.668 29.4576 555.702 29.9323C556.742 30.407 557.561 31.0605 558.16 31.8928C558.758 32.7187 559.07 33.668 559.096 34.741H556.189Z" fill="white"/>
<path d="M533.488 29.4937V49.4699H530.474V29.4937H533.488Z" fill="white"/>
<path d="M516.277 34.741C516.173 33.8176 515.744 33.1023 514.99 32.5951C514.235 32.0814 513.286 31.8245 512.141 31.8245C511.322 31.8245 510.613 31.9546 510.015 32.2147C509.417 32.4683 508.952 32.8194 508.62 33.2681C508.295 33.7103 508.133 34.2143 508.133 34.78C508.133 35.2547 508.243 35.6644 508.464 36.009C508.692 36.3537 508.988 36.643 509.352 36.8771C509.722 37.1047 510.119 37.2965 510.542 37.4526C510.964 37.6022 511.371 37.7257 511.761 37.8233L513.712 38.3305C514.349 38.4865 515.003 38.6979 515.672 38.9645C516.342 39.2311 516.963 39.5822 517.535 40.0179C518.108 40.4536 518.569 40.9933 518.92 41.6371C519.278 42.2808 519.457 43.0514 519.457 43.9488C519.457 45.0803 519.164 46.0849 518.579 46.9628C518 47.8406 517.158 48.5332 516.053 49.0404C514.954 49.5476 513.624 49.8012 512.063 49.8012C510.568 49.8012 509.274 49.5639 508.181 49.0892C507.089 48.6145 506.234 47.9414 505.616 47.0701C504.998 46.1922 504.657 45.1518 504.592 43.9488H507.616C507.674 44.6706 507.908 45.2721 508.318 45.7533C508.734 46.228 509.264 46.5824 509.908 46.8165C510.558 47.0441 511.27 47.1579 512.044 47.1579C512.896 47.1579 513.653 47.0246 514.317 46.7579C514.986 46.4848 515.513 46.1077 515.897 45.6265C516.28 45.1388 516.472 44.5698 516.472 43.9195C516.472 43.3278 516.303 42.8433 515.965 42.4662C515.633 42.089 515.181 41.7769 514.609 41.5298C514.043 41.2827 513.403 41.0648 512.688 40.8763L510.327 40.2325C508.728 39.7968 507.459 39.1563 506.523 38.311C505.593 37.4656 505.128 36.3472 505.128 34.9556C505.128 33.8046 505.44 32.7999 506.065 31.9416C506.689 31.0832 507.534 30.4167 508.601 29.942C509.667 29.4608 510.87 29.2202 512.21 29.2202C513.562 29.2202 514.755 29.4576 515.789 29.9323C516.83 30.407 517.649 31.0605 518.247 31.8928C518.846 32.7187 519.158 33.668 519.184 34.741H516.277Z" fill="white"/>
<path d="M411.411 120.78C411.411 113.04 415.551 109.62 425.631 109.62C435.711 109.62 439.851 113.04 439.851 120.78C439.851 128.52 435.711 131.94 425.631 131.94C415.551 131.94 411.411 128.52 411.411 120.78Z" fill="url(#paint0_linear_67_118)"/>
<path d="M378.499 131.94C370.759 131.94 366.979 130.32 366.979 123.48V60.84C366.979 53.46 359.779 47.7 339.619 47.7H329.539C309.559 47.7 303.439 53.46 303.439 60.84V123.48C303.439 130.32 299.659 131.94 291.919 131.94C283.819 131.94 280.579 129.96 280.579 123.48V60.84C280.579 53.46 274.459 47.7 254.479 47.7H244.399C224.239 47.7 217.039 53.46 217.039 60.84V123.48C217.039 130.32 213.259 131.94 205.519 131.94C197.959 131.94 194.179 130.32 194.179 123.48V60.84C194.179 39.78 211.279 29.52 240.439 29.52H258.259C273.199 29.52 284.719 32.58 291.919 38.52C299.299 32.58 310.639 29.52 325.759 29.52H343.579C372.739 29.52 389.839 39.78 389.839 60.84V123.48C389.839 130.32 386.059 131.94 378.499 131.94Z" fill="url(#paint1_linear_67_118)"/>
<path d="M172.632 38.52V123.48C172.632 130.32 168.852 131.94 161.112 131.94C153.552 131.94 149.772 130.32 149.772 123.48V38.52C149.772 31.68 153.552 30.06 161.112 30.06C168.852 30.06 172.632 31.68 172.632 38.52ZM146.892 11.16C146.892 3.42 151.032 0 161.112 0C171.192 0 175.332 3.42 175.332 11.16C175.332 18.9 171.192 22.32 161.112 22.32C151.032 22.32 146.892 18.9 146.892 11.16Z" fill="url(#paint2_linear_67_118)"/>
<path d="M0 61.74V56.52C0 39.78 14.76 29.52 42.84 29.52H67.5C72.9 29.52 74.16 32.58 74.16 38.7C74.16 44.64 72.9 47.7 67.5 47.7H42.66C29.16 47.7 22.68 51.12 22.68 56.7V61.38C22.68 66.96 29.16 70.56 43.56 70.56H83.34C117 70.56 130.86 80.64 130.86 97.92V103.68C130.86 120.96 116.1 131.22 79.92 131.22H7.02C1.62 131.22 0.36 128.16 0.36 122.04C0.36 116.1 1.62 113.04 7.02 113.04H83.34C102.6 113.04 107.82 109.62 107.82 104.04V97.56C107.82 91.98 102.6 88.38 84.06 88.38H43.74C14.76 88.38 0 78.3 0 61.74Z" fill="url(#paint3_linear_67_118)"/>
<defs>
<linearGradient id="paint0_linear_67_118" x1="-0.408203" y1="66.2202" x2="439.592" y2="66.2202" gradientUnits="userSpaceOnUse">
<stop stop-color="#B2FAFF"/>
<stop offset="1" stop-color="#87BBFF"/>
</linearGradient>
<linearGradient id="paint1_linear_67_118" x1="-0.408203" y1="66.2202" x2="439.592" y2="66.2202" gradientUnits="userSpaceOnUse">
<stop stop-color="#B2FAFF"/>
<stop offset="1" stop-color="#87BBFF"/>
</linearGradient>
<linearGradient id="paint2_linear_67_118" x1="-0.408203" y1="66.2202" x2="439.592" y2="66.2202" gradientUnits="userSpaceOnUse">
<stop stop-color="#B2FAFF"/>
<stop offset="1" stop-color="#87BBFF"/>
</linearGradient>
<linearGradient id="paint3_linear_67_118" x1="-0.408203" y1="66.2202" x2="439.592" y2="66.2202" gradientUnits="userSpaceOnUse">
<stop stop-color="#B2FAFF"/>
<stop offset="1" stop-color="#87BBFF"/>
</linearGradient>
</defs>
</svg>
